<?xml version="1.0" standalone="no"?>
<!DOCTYPE svg PUBLIC "-//W3C//DTD SVG 20010904//EN"
 "http://www.w3.org/TR/2001/REC-SVG-20010904/DTD/svg10.dtd">
<svg version="1.0" xmlns="http://www.w3.org/2000/svg"
 width="1024.000000pt" height="1024.000000pt" viewBox="0 0 1024.000000 1024.000000"
 preserveAspectRatio="xMidYMid meet">
<metadata>
Created by potrace 1.14, written by Peter Selinger 2001-2017
</metadata>
<g transform="translate(0.000000,1024.000000) scale(0.100000,-0.100000)"
fill="#000000" stroke="none">
<path d="M5488 8593 c6 -2 18 -2 25 0 6 3 1 5 -13 5 -14 0 -19 -2 -12 -5z"/>
<path d="M5600 8580 c0 -5 19 -10 43 -10 23 0 49 -5 57 -10 11 -7 2 -9 -30 -6
-34 4 -28 2 20 -9 81 -18 233 -16 218 3 -7 8 -7 12 1 12 6 0 11 4 11 9 0 14
-173 26 -178 12 -5 -14 -42 -15 -42 -1 0 6 -22 10 -50 10 -27 0 -50 -4 -50
-10z m260 -24 c0 -3 -4 -8 -10 -11 -5 -3 -10 -1 -10 4 0 6 5 11 10 11 6 0 10
-2 10 -4z"/>
<path d="M5528 8523 c7 -3 16 -2 19 1 4 3 -2 6 -13 5 -11 0 -14 -3 -6 -6z"/>
<path d="M5748 8373 c7 -3 16 -2 19 1 4 3 -2 6 -13 5 -11 0 -14 -3 -6 -6z"/>
<path d="M4766 8343 c-2 -2 -90 -6 -197 -8 -106 -3 -197 -9 -203 -15 -5 -5
-10 -43 -10 -85 -1 -65 -3 -75 -19 -75 -26 0 -30 -21 -11 -66 l17 -39 10 25
c6 14 12 27 13 29 8 11 109 -37 125 -60 l19 -27 -104 -7 c-64 -4 -132 -2 -178
4 -42 7 -142 10 -231 8 -86 -3 -157 0 -157 4 0 5 -16 9 -36 9 -21 0 -33 -4
-29 -10 3 -5 1 -10 -4 -10 -6 0 -11 5 -11 11 0 7 -17 10 -44 8 -24 -2 -42 -1
-39 4 2 4 -14 7 -37 7 -23 0 -39 -4 -36 -8 2 -4 0 -14 -6 -22 -8 -12 -9 -12
-4 3 4 14 -1 17 -34 17 -22 0 -40 -4 -40 -10 0 -5 -28 -11 -62 -11 -57 -2 -53
-3 32 -10 52 -4 124 -16 160 -25 36 -9 88 -16 117 -15 89 2 204 -33 159 -49
-8 -3 78 -5 192 -6 114 0 286 -7 382 -15 127 -10 342 -14 780 -13 679 1 782 3
775 14 -8 13 23 20 88 21 46 1 56 3 37 9 -22 7 -20 8 14 9 30 1 37 4 32 16 -4
12 4 15 43 15 30 0 51 -5 54 -12 4 -10 7 -10 15 0 5 8 31 14 60 14 29 1 52 6
52 11 0 5 -53 7 -132 4 -73 -2 -160 -1 -193 4 -33 5 -132 11 -220 14 -189 6
-196 8 -165 35 16 14 38 20 69 20 25 1 64 8 86 16 22 9 58 19 79 22 22 4 41
12 42 17 4 10 -63 45 -86 45 -12 0 -11 18 6 77 9 32 -29 51 -116 58 -41 3
-107 10 -147 16 -39 6 -161 12 -270 15 -192 4 -413 11 -560 18 -40 1 -74 1
-77 -1z m1014 -169 c8 -8 6 -12 -7 -15 -30 -7 -289 6 -273 13 36 16 51 17 157
15 66 -1 117 -7 123 -13z m-775 -9 c-22 -8 -51 -14 -65 -14 l-25 0 25 14 c14
8 43 14 65 14 l40 -1 -40 -13z m-382 -142 c-7 -2 -19 -2 -25 0 -7 3 -2 5 12 5
14 0 19 -2 13 -5z m947 -93 c0 -5 -4 -10 -10 -10 -5 0 -10 5 -10 10 0 6 5 10
10 10 6 0 10 -4 10 -10z m537 4 c-3 -3 -12 -4 -19 -1 -8 3 -5 6 6 6 11 1 17
-2 13 -5z"/>
<path d="M3238 8133 c7 -3 16 -2 19 1 4 3 -2 6 -13 5 -11 0 -14 -3 -6 -6z"/>
<path d="M4365 8060 c-3 -5 -1 -10 4 -10 6 0 11 5 11 10 0 6 -2 10 -4 10 -3 0
-8 -4 -11 -10z"/>
<path d="M4040 7890 c0 -5 7 -10 16 -10 8 0 12 5 9 10 -3 6 -10 10 -16 10 -5
0 -9 -4 -9 -10z"/>
<path d="M4113 7863 c9 -2 23 -2 30 0 6 3 -1 5 -18 5 -16 0 -22 -2 -12 -5z"/>
<path d="M5240 7844 c-14 -2 -185 -5 -380 -7 -307 -3 -359 -5 -384 -19 -16 -9
-57 -20 -92 -23 -39 -5 -65 -12 -68 -21 -3 -8 1 -14 10 -14 10 0 14 -7 12 -22
-2 -13 -8 -22 -15 -21 -15 3 -39 -27 -46 -58 l-7 -26 138 -7 c208 -10 1026
-26 1297 -25 295 0 354 12 355 71 0 17 -68 58 -97 58 -7 0 -17 9 -23 20 -13
25 -60 47 -130 61 -30 6 -74 15 -97 20 -23 4 -122 8 -220 8 -98 -1 -189 1
-203 4 -14 2 -36 3 -50 1z m-160 -44 c0 -5 -9 -10 -20 -10 -11 0 -20 5 -20 10
0 6 9 10 20 10 11 0 20 -4 20 -10z m-185 -20 c3 -5 1 -10 -6 -10 -10 0 -10 -3
-1 -12 19 -19 14 -28 -12 -28 -29 0 -46 19 -19 21 17 1 17 2 0 6 -14 4 -16 8
-6 19 13 16 35 18 44 4z m345 0 c0 -5 -7 -10 -15 -10 -8 0 -15 5 -15 10 0 6 7
10 15 10 8 0 15 -4 15 -10z m-810 -45 c10 -13 9 -15 -9 -15 -12 0 -21 6 -21
15 0 8 4 15 9 15 5 0 14 -7 21 -15z m130 -8 c0 -15 -9 -29 -27 -38 l-26 -14
29 -6 c16 -4 -9 -6 -56 -6 -47 0 -66 2 -42 4 45 4 51 13 27 33 -9 7 -13 16 -9
19 5 5 71 25 97 30 4 0 7 -9 7 -22z m206 -18 c-32 -9 -42 -6 -32 9 3 5 18 7
33 4 l28 -5 -29 -8z m-218 -66 c-10 -2 -26 -2 -35 0 -10 3 -2 5 17 5 19 0 27
-2 18 -5z"/>
<path d="M3227 7813 c-4 -3 -7 -11 -7 -17 0 -6 5 -5 12 2 6 6 9 14 7 17 -3 3
-9 2 -12 -2z"/>
<path d="M6926 7725 c-9 -24 4 -45 28 -45 11 0 32 -3 46 -6 21 -5 19 -2 -12
21 -21 16 -38 32 -38 37 0 14 -18 9 -24 -7z"/>
<path d="M3807 7723 c-4 -3 -7 -16 -7 -27 1 -21 1 -21 15 -2 8 11 15 23 15 28
0 10 -14 11 -23 1z"/>
<path d="M4086 7703 c-4 -4 -13 -8 -19 -8 -21 0 -19 -33 2 -40 27 -8 63 12 59
33 -4 18 -29 27 -42 15z"/>
<path d="M6451 7678 c-17 -45 5 -68 64 -68 59 0 66 8 50 57 -13 39 -100 47
-114 11z"/>
<path d="M3858 7653 c7 -3 16 -2 19 1 4 3 -2 6 -13 5 -11 0 -14 -3 -6 -6z"/>
<path d="M5087 7203 c-4 -3 -7 -23 -7 -43 0 -41 -23 -72 -34 -45 -7 19 -40 19
-56 0 -7 -8 -17 -12 -23 -8 -5 3 -16 -2 -22 -11 -11 -14 -9 -24 6 -56 10 -21
19 -47 18 -57 0 -17 -1 -17 -12 1 -25 39 -55 66 -77 68 -19 2 -26 -3 -33 -28
-7 -25 -4 -42 16 -85 24 -52 28 -119 7 -119 -5 0 -14 -16 -21 -35 -7 -19 -19
-35 -26 -35 -17 0 -16 20 2 44 8 11 15 33 15 48 0 16 6 37 12 48 11 17 10 25
-2 48 -9 15 -23 28 -32 30 -25 5 -30 -28 -8 -63 24 -38 25 -45 6 -45 -10 0
-14 -19 -14 -80 -1 -77 -1 -79 18 -68 11 7 20 15 20 18 0 4 7 15 15 26 12 16
14 17 15 2 0 -9 -6 -23 -14 -30 -8 -8 -15 -39 -17 -68 -4 -50 -2 -54 21 -61
14 -4 143 -7 286 -8 296 -1 274 -8 274 84 0 47 2 53 19 48 15 -4 19 3 24 44 5
42 3 51 -18 70 -31 27 -32 49 -4 72 21 16 21 21 9 69 -14 62 -38 83 -86 75
-30 -5 -34 -3 -34 15 0 15 -12 27 -40 41 -40 19 -80 18 -80 -3 0 -6 -7 2 -15
18 -8 15 -12 32 -9 37 9 16 -17 40 -37 34 -9 -3 -20 -1 -24 5 -7 11 -28 13
-38 3z m-60 -89 c-3 -3 -12 -4 -19 -1 -8 3 -5 6 6 6 11 1 17 -2 13 -5z m25
-59 c3 -13 1 -22 -3 -19 -14 8 -10 -18 5 -48 13 -24 13 -28 0 -28 -8 0 -14 8
-14 18 0 10 -5 23 -11 29 -12 12 -3 73 11 73 4 0 10 -11 12 -25z m188 -5 c0
-21 -15 -27 -25 -10 -7 12 2 30 16 30 5 0 9 -9 9 -20z m-240 -21 c0 -5 -7 -9
-15 -9 -9 0 -15 9 -15 21 0 18 2 19 15 9 8 -7 15 -16 15 -21z m300 22 c0 -5
-7 -17 -16 -25 -28 -29 -42 -20 -24 15 11 19 40 27 40 10z m40 -18 c0 -19 -37
-83 -48 -83 -15 0 -8 31 16 68 14 21 32 30 32 15z m-100 -34 c0 -5 -7 -9 -15
-9 -9 0 -12 6 -9 15 6 15 24 11 24 -6z m-160 1 c0 -5 -2 -10 -4 -10 -3 0 -8 5
-11 10 -3 6 -1 10 4 10 6 0 11 -4 11 -10z m68 -27 c-10 -2 -26 -2 -35 0 -10 3
-2 5 17 5 19 0 27 -2 18 -5z m-198 -32 c0 -10 -9 -21 -20 -24 -23 -6 -24 -3
-8 23 16 25 28 26 28 1z m200 15 c0 -9 -30 -14 -35 -6 -4 6 3 10 14 10 12 0
21 -2 21 -4z m230 -26 c0 -5 -7 -7 -15 -4 -8 4 -15 8 -15 10 0 2 7 4 15 4 8 0
15 -4 15 -10z m19 -62 c0 -27 -2 -29 -8 -13 -5 11 -6 26 -4 33 8 21 13 13 12
-20z m-419 -33 c0 -27 -6 -30 -30 -15 -13 8 -12 11 5 24 26 20 25 20 25 -9z
m267 3 c-3 -8 -6 -5 -6 6 -1 11 2 17 5 13 3 -3 4 -12 1 -19z m53 -8 c0 -5 -4
-10 -10 -10 -5 0 -10 5 -10 10 0 6 5 10 10 10 6 0 10 -4 10 -10z m150 -61 c0
-5 -7 -9 -15 -9 -15 0 -20 12 -9 23 8 8 24 -1 24 -14z m-100 -16 c0 -23 -29
-53 -52 -53 -26 0 -22 18 5 22 14 2 23 11 25 26 4 25 22 30 22 5z m-342 -5
c17 -17 15 -28 -7 -28 -19 0 -35 23 -24 34 9 9 18 7 31 -6z m278 -3 c-23 -17
-36 -19 -36 -6 0 11 18 19 40 20 11 0 10 -3 -4 -14z m-339 -31 c5 -15 -57 -38
-69 -26 -7 7 -1 15 19 25 30 16 45 16 50 1z m448 -29 c0 -27 -31 -32 -38 -6
-6 24 1 33 23 29 8 -2 15 -12 15 -23z m-335 -1 c0 -2 -7 -4 -15 -4 -8 0 -15 4
-15 10 0 5 7 7 15 4 8 -4 15 -8 15 -10z m254 -15 c25 -12 47 -31 50 -42 4 -16
8 -18 19 -9 15 12 30 5 21 -9 -10 -17 -46 -9 -51 11 -4 15 -11 19 -27 15 -15
-4 -17 -3 -8 3 10 7 0 14 -37 26 -28 9 -56 15 -62 14 -6 -2 -14 3 -17 11 -7
20 55 9 112 -20z m-233 -32 c-1 -12 -15 -9 -19 4 -3 6 1 10 8 8 6 -3 11 -8 11
-12z m114 3 c-3 -5 -12 -10 -18 -10 -7 0 -6 4 3 10 19 12 23 12 15 0z m-305
-20 c12 -8 9 -10 -12 -10 -16 0 -28 5 -28 10 0 13 20 13 40 0z"/>
<path d="M4071 6823 c1 -32 4 -49 6 -38 3 11 10 26 15 33 7 8 7 12 -1 12 -18
0 -13 38 7 43 13 4 11 5 -5 6 -21 1 -23 -3 -22 -56z"/>
<path d="M4197 6864 c-7 -8 13 -54 25 -54 4 0 8 5 8 10 0 6 -4 10 -10 10 -17
0 -11 28 8 33 14 4 13 5 -4 6 -11 0 -23 -2 -27 -5z"/>
<path d="M4338 6863 c7 -3 12 -24 12 -54 0 -27 5 -49 10 -49 6 0 10 19 10 41
0 28 6 46 18 55 15 12 12 13 -23 13 -22 0 -34 -3 -27 -6z"/>
<path d="M4487 6864 c-11 -11 -8 -52 3 -59 20 -12 50 6 50 31 0 13 -4 24 -9
24 -5 0 -16 2 -23 5 -8 3 -17 2 -21 -1z m33 -29 c0 -8 -4 -15 -10 -15 -5 0
-10 7 -10 15 0 8 5 15 10 15 6 0 10 -7 10 -15z"/>
<path d="M5720 6778 c0 -45 3 -59 10 -48 13 20 13 110 0 110 -6 0 -10 -27 -10
-62z"/>
<path d="M5839 6838 c-1 -2 -2 -21 -4 -43 -3 -52 10 -77 38 -73 20 3 22 9 22
58 0 53 -1 55 -27 58 -16 2 -28 2 -29 0z m41 -29 c0 -5 -7 -9 -15 -9 -15 0
-20 12 -9 23 8 8 24 -1 24 -14z m0 -54 c0 -9 -6 -12 -15 -9 -8 4 -15 10 -15
15 0 5 7 9 15 9 8 0 15 -7 15 -15z"/>
<path d="M5996 6795 c-4 -26 -3 -52 3 -62 8 -14 10 -3 11 45 0 34 -2 62 -4 62
-2 0 -7 -20 -10 -45z"/>
<path d="M6135 6820 c-3 -5 -3 -16 2 -22 4 -7 6 -21 5 -30 -2 -10 1 -18 7 -18
6 0 10 18 9 40 -1 39 -10 51 -23 30z"/>
<path d="M4236 6786 c4 -9 -3 -16 -18 -19 -22 -5 -22 -5 2 -4 24 2 44 37 21
37 -6 0 -8 -6 -5 -14z"/>
<path d="M6105 6781 c-6 -11 9 -23 19 -14 9 9 7 23 -3 23 -6 0 -12 -4 -16 -9z"/>
<path d="M4495 6760 c-4 -6 3 -10 14 -10 25 0 27 6 6 13 -8 4 -17 2 -20 -3z"/>
<path d="M4211 6425 c0 -16 3 -24 6 -17 2 6 11 12 19 12 8 0 14 8 14 18 0 11
-7 18 -20 18 -16 0 -20 -7 -19 -31z"/>
<path d="M4743 6453 c-20 -8 -16 -77 5 -96 25 -23 32 -21 32 6 0 16 3 18 9 8
5 -7 27 -15 50 -16 36 -3 41 -1 42 18 1 17 2 18 6 5 5 -21 68 -25 76 -5 3 6 6
3 6 -7 1 -11 4 -16 8 -13 3 4 12 2 20 -4 10 -9 13 -8 13 5 0 9 -7 16 -15 16
-9 0 -15 9 -15 25 0 22 -4 25 -38 25 -21 0 -43 -5 -50 -12 -9 -9 -12 -9 -12 0
0 7 -16 12 -40 12 -27 0 -47 7 -60 20 -11 11 -21 20 -22 19 -2 0 -9 -3 -15 -6z
m18 -66 c-8 -8 -11 -3 -11 19 1 25 2 27 11 11 8 -14 8 -22 0 -30z"/>
<path d="M4031 6434 c0 -11 3 -14 6 -6 3 7 2 16 -1 19 -3 4 -6 -2 -5 -13z"/>
<path d="M4581 6403 c0 -39 2 -44 9 -25 5 12 12 22 16 22 3 0 4 -7 1 -15 -4
-8 -2 -17 3 -20 16 -10 11 55 -4 71 -23 22 -26 17 -25 -33z"/>
<path d="M5055 6439 c-3 -3 -1 -26 4 -50 l8 -44 8 30 8 30 12 -29 12 -29 7 43
c4 23 4 45 1 48 -8 8 -56 9 -60 1z"/>
<path d="M5284 6432 c-6 -20 -13 -23 -48 -22 -63 3 -66 2 -67 -22 -1 -22 -1
-22 -8 1 -10 38 -28 36 -29 -4 -1 -32 1 -35 27 -35 16 0 32 6 34 13 4 10 6 10
6 0 2 -22 19 -14 24 10 4 21 4 21 6 1 0 -13 10 -24 21 -27 16 -4 20 0 21 21 2
24 2 24 6 5 2 -13 10 -23 16 -24 23 -1 162 -1 185 0 14 1 26 10 31 24 9 22 9
21 16 -6 7 -28 29 -32 31 -6 2 31 5 33 19 9 l14 -25 1 23 c0 15 5 22 13 19 6
-2 11 -11 9 -21 -2 -9 2 -16 8 -16 6 0 10 12 8 28 l-3 27 -115 6 c-63 3 -125
2 -136 -2 -31 -11 -60 -1 -72 24 l-11 22 -7 -23z m40 -40 c-6 -4 -14 -14 -17
-22 -4 -10 -6 -8 -6 8 -1 15 5 22 17 22 10 0 13 -3 6 -8z m76 -12 c0 -11 -4
-20 -10 -20 -5 0 -10 9 -10 20 0 11 5 20 10 20 6 0 10 -9 10 -20z m27 -12 c-3
-7 -5 -2 -5 12 0 14 2 19 5 13 2 -7 2 -19 0 -25z"/>
<path d="M4062 6420 c0 -14 2 -19 5 -12 2 6 2 18 0 25 -3 6 -5 1 -5 -13z"/>
<path d="M4080 6418 c0 -19 2 -20 10 -8 13 19 13 30 0 30 -5 0 -10 -10 -10
-22z"/>
<path d="M4279 6422 c-1 -12 -2 -26 -3 -32 -1 -5 4 -10 9 -11 6 0 15 -5 22
-10 7 -7 14 -6 18 1 4 6 16 8 27 4 16 -5 20 -3 15 8 -3 8 -1 21 3 28 6 10 10
7 15 -13 7 -28 25 -37 25 -13 0 35 -13 46 -51 46 -38 0 -52 -13 -26 -23 9 -4
9 -6 0 -6 -7 -1 -21 9 -33 21 l-20 22 -1 -22z"/>
<path d="M4426 6403 c9 -49 14 -54 14 -14 0 19 4 30 10 26 6 -3 10 -23 10 -43
0 -28 3 -33 10 -22 17 26 12 68 -9 80 -35 18 -42 12 -35 -27z"/>
<path d="M4557 6433 c-11 -10 -8 -73 3 -73 6 0 10 18 10 40 0 41 -2 45 -13 33z"/>
<path d="M5746 6422 c-4 -11 -15 -18 -29 -18 -16 1 -23 -6 -25 -22 -4 -26 21
-40 42 -23 11 9 15 9 19 -1 3 -7 6 8 6 35 1 49 -4 59 -13 29z"/>
<path d="M5821 6418 c0 -13 4 -32 9 -43 7 -15 9 -10 9 23 1 23 -3 42 -9 42 -5
0 -10 -10 -9 -22z"/>
<path d="M4637 6413 c-11 -10 -8 -41 4 -48 13 -9 16 -6 24 28 5 20 3 27 -7 27
-8 0 -18 -3 -21 -7z"/>
<path d="M5970 6410 c0 -5 -25 -8 -55 -6 -52 3 -55 2 -55 -20 0 -29 16 -39 35
-24 10 8 15 9 15 2 0 -6 15 -10 34 -9 20 1 32 6 29 13 -2 7 0 15 6 19 14 8 14
35 1 35 -5 0 -10 -4 -10 -10z m-43 -42 c-3 -8 -6 -5 -6 6 -1 11 2 17 5 13 3
-3 4 -12 1 -19z"/>
<path d="M6070 6391 c0 -12 0 -24 -1 -28 0 -4 4 -9 10 -11 14 -5 15 45 1 53
-5 3 -10 -3 -10 -14z"/>
<path d="M6275 6400 c-3 -5 -1 -10 4 -10 6 0 11 5 11 10 0 6 -2 10 -4 10 -3 0
-8 -4 -11 -10z"/>
<path d="M6125 6391 c-3 -5 -1 -12 5 -16 5 -3 10 1 10 9 0 18 -6 21 -15 7z"/>
<path d="M4429 6275 c-5 -50 -4 -63 7 -53 3 3 4 28 2 54 l-3 49 -6 -50z"/>
<path d="M4458 6272 c-2 -24 0 -46 4 -48 5 -3 8 1 8 8 0 9 3 9 10 -2 7 -11 10
-1 10 36 0 37 -4 51 -14 51 -10 0 -15 -15 -18 -45z"/>
<path d="M4403 6265 c0 -27 2 -38 4 -22 2 15 2 37 0 50 -2 12 -4 0 -4 -28z"/>
<path d="M4559 6280 c-6 -47 0 -70 17 -70 10 0 12 5 7 13 -4 6 -10 30 -13 52
l-6 40 -5 -35z"/>
<path d="M4834 6283 c-7 -11 -21 -17 -37 -15 -23 1 -27 -2 -27 -23 0 -14 0
-28 0 -32 0 -5 6 -8 13 -8 6 0 11 6 10 13 -4 16 5 15 23 -3 18 -17 64 -20 64
-4 0 5 -4 7 -10 4 -6 -4 -10 12 -10 39 0 49 -8 57 -26 29z"/>
<path d="M4930 6251 l0 -50 38 1 c35 0 37 2 39 34 4 42 -14 44 -31 4 -15 -36
-26 -29 -26 16 0 18 -4 36 -10 39 -6 4 -10 -13 -10 -44z"/>
<path d="M5110 6285 c0 -10 -7 -15 -17 -13 -12 2 -19 -6 -24 -27 l-7 -30 -1
28 c-1 16 -7 27 -15 27 -20 0 -29 -17 -15 -26 8 -5 8 -9 -1 -14 -30 -19 5 -30
94 -30 88 0 94 1 101 23 l8 22 4 -22 c3 -18 10 -22 34 -19 16 2 29 1 29 -3 0
-3 36 -6 80 -7 44 0 80 3 80 8 0 4 -4 8 -10 8 -5 0 -10 18 -10 40 0 48 -9 51
-34 8 -19 -31 -19 -31 -28 -9 -4 12 -12 19 -18 16 -6 -4 -8 -10 -5 -14 2 -5
-2 -17 -10 -27 -14 -18 -15 -17 -11 9 4 25 2 27 -29 27 -20 0 -35 6 -38 15 -5
12 -10 12 -34 0 -39 -21 -79 -19 -103 5 -16 16 -20 17 -20 5z"/>
<path d="M5886 6293 c-10 -10 -7 -95 3 -88 5 3 9 18 9 34 -1 15 2 33 6 39 7
12 -8 25 -18 15z"/>
<path d="M4092 6270 c0 -14 2 -19 5 -12 2 6 2 18 0 25 -3 6 -5 1 -5 -13z"/>
<path d="M4162 6265 c0 -16 2 -22 5 -12 2 9 2 23 0 30 -3 6 -5 -1 -5 -18z"/>
<path d="M5513 6241 c2 -43 4 -48 19 -40 10 6 19 5 23 -1 14 -23 35 -9 35 23
0 26 -4 33 -20 33 -11 0 -20 -6 -20 -14 0 -7 -4 -10 -10 -7 -5 3 -10 17 -10
31 0 13 -4 24 -10 24 -5 0 -8 -22 -7 -49z"/>
<path d="M5824 6252 c-7 -35 -2 -45 21 -48 10 -2 14 7 13 30 -1 18 2 38 6 44
4 7 -1 10 -14 9 -14 -1 -22 -11 -26 -35z"/>
<path d="M5930 6283 c0 -5 5 -15 10 -23 8 -12 10 -11 10 8 0 12 -4 22 -10 22
-5 0 -10 -3 -10 -7z"/>
<path d="M6180 6260 c0 -32 1 -33 17 -17 16 16 16 18 0 34 -16 16 -17 15 -17
-17z"/>
<path d="M4185 6270 c-3 -5 -1 -10 4 -10 6 0 11 5 11 10 0 6 -2 10 -4 10 -3 0
-8 -4 -11 -10z"/>
<path d="M4230 6266 c0 -8 5 -18 10 -21 6 -3 10 1 10 9 0 8 -4 18 -10 21 -5 3
-10 -1 -10 -9z"/>
<path d="M4270 6261 c0 -11 5 -23 12 -27 6 -4 8 -3 4 4 -3 6 -2 13 4 17 15 9
12 25 -5 25 -8 0 -15 -9 -15 -19z"/>
<path d="M4317 6273 c-4 -3 -7 -11 -7 -17 0 -6 5 -5 12 2 6 6 9 14 7 17 -3 3
-9 2 -12 -2z"/>
<path d="M4630 6269 c0 -5 -7 -9 -15 -9 -9 0 -15 -9 -15 -24 0 -32 39 -33 41
-1 1 17 2 16 9 -5 l7 -25 11 25 c11 25 11 25 11 2 1 -29 33 -26 43 3 6 19 6
18 7 -2 1 -28 20 -30 23 -3 0 11 1 26 2 33 1 7 -8 11 -19 9 -29 -4 -36 -4 -72
1 -18 2 -33 0 -33 -4z"/>
<path d="M4061 6254 c0 -11 3 -14 6 -6 3 7 2 16 -1 19 -3 4 -6 -2 -5 -13z"/>
<path d="M6122 6245 c0 -16 2 -22 5 -12 2 9 2 23 0 30 -3 6 -5 -1 -5 -18z"/>
<path d="M5600 6230 c0 -16 5 -30 10 -30 6 0 10 9 10 20 0 28 20 25 21 -2 0
-22 1 -22 11 2 l10 25 11 -22 c11 -24 33 -33 24 -10 -3 8 1 14 9 14 8 0 14
-10 14 -24 0 -32 16 -29 23 4 9 47 0 53 -74 53 l-69 0 0 -30z"/>
<path d="M5927 6220 c-3 -12 0 -20 7 -20 6 0 12 9 13 20 1 11 -2 20 -6 20 -5
0 -11 -9 -14 -20z"/>
<path d="M6085 6229 c-4 -6 -5 -12 -2 -15 2 -3 7 2 10 11 7 17 1 20 -8 4z"/>
<path d="M5978 6203 c7 -3 16 -2 19 1 4 3 -2 6 -13 5 -11 0 -14 -3 -6 -6z"/>
<path d="M4506 6011 c-3 -4 -10 -264 -15 -576 -5 -312 -11 -569 -14 -571 -2
-3 -41 -11 -86 -18 -44 -7 -84 -16 -88 -19 -19 -19 21 -22 107 -8 l95 16 6
240 c4 132 9 399 13 593 6 326 3 378 -18 343z"/>
<path d="M4404 5974 c-38 -19 -74 -41 -81 -47 -12 -13 -17 -134 -29 -755 l-6
-324 58 8 c105 13 108 14 115 70 4 27 7 162 8 299 0 138 4 370 7 518 4 147 5
267 2 267 -3 0 -36 -16 -74 -36z"/>
<path d="M3575 5919 c-104 -44 -177 -120 -235 -244 -124 -266 -114 -736 22
-969 108 -186 315 -265 528 -202 41 12 46 17 51 50 3 20 4 48 1 61 -4 21 -7
23 -31 13 -14 -5 -58 -10 -98 -10 -90 0 -158 29 -229 98 -120 117 -168 272
-168 544 0 200 22 294 98 428 35 62 114 117 183 128 73 11 137 -11 203 -72 68
-64 70 -62 70 62 l0 84 -32 14 c-72 31 -144 46 -217 46 -62 -1 -89 -6 -146
-31z"/>
<path d="M3990 5798 c0 -69 -4 -100 -16 -116 -20 -30 -8 -49 17 -26 16 15 19
32 19 120 0 58 -4 106 -10 109 -6 4 -10 -27 -10 -87z"/>
<path d="M3669 5786 c-73 -26 -143 -101 -182 -198 -68 -164 -70 -498 -5 -678
11 -30 24 -59 29 -64 5 -6 0 15 -11 46 -64 183 -66 467 -4 643 61 175 186 270
307 237 49 -14 47 2 -2 16 -49 15 -87 15 -132 -2z"/>
<path d="M4797 5723 c-4 -3 -7 -15 -7 -25 0 -10 -4 -18 -10 -18 -5 0 -10 9
-10 21 0 26 -22 22 -108 -19 l-57 -27 -6 -125 c-3 -69 -6 -241 -8 -383 l-2
-258 63 7 c85 9 82 9 94 17 8 4 14 100 19 297 7 269 9 292 27 316 15 19 28 24
51 22 56 -5 58 -20 51 -341 l-6 -288 88 3 89 3 6 275 c4 151 7 280 8 287 3 26
48 63 77 62 l29 -1 -32 -9 c-59 -17 -63 -33 -63 -240 0 -102 -3 -234 -7 -292
l-6 -107 -89 0 c-54 0 -88 -4 -88 -10 0 -7 38 -10 108 -8 l107 3 3 280 c2 167
7 291 14 307 5 15 20 30 32 34 11 4 24 12 28 18 10 14 9 25 11 -319 l2 -290
75 -7 c45 -4 79 -3 85 3 16 16 19 655 4 702 -34 103 -174 139 -284 73 l-39
-24 -33 25 c-38 30 -102 40 -156 25 -30 -8 -37 -8 -37 4 0 15 -12 19 -23 7z"/>
<path d="M5690 5680 c-51 -9 -129 -37 -147 -54 -15 -14 -29 -186 -15 -186 5 0
24 13 42 30 60 56 160 86 200 60 11 -7 2 -10 -33 -10 -60 0 -123 -28 -171 -76
-29 -29 -36 -44 -36 -74 0 -21 -6 -43 -14 -49 -63 -53 -81 -238 -33 -341 28
-61 44 -78 97 -106 40 -20 153 -25 184 -7 15 8 26 6 50 -8 19 -11 56 -20 91
-21 l60 -3 0 361 0 360 -28 43 c-44 67 -141 98 -247 81z m114 -192 c7 -29 8
-83 1 -90 -3 -3 -22 1 -43 8 -52 19 -100 17 -149 -6 -50 -22 -55 -15 -15 21
51 48 119 78 193 88 4 1 9 -9 13 -21z m-49 -238 c4 -7 -2 -9 -19 -4 -33 8 -85
-41 -87 -83 -3 -47 3 -97 12 -115 6 -11 6 -18 1 -18 -33 0 -41 141 -11 188 22
35 89 56 104 32z m43 -93 c6 -95 -27 -147 -92 -147 -24 0 -26 4 -28 43 -4 107
20 167 68 167 13 0 24 5 24 12 0 9 3 9 12 0 7 -7 14 -41 16 -75z"/>
<path d="M5365 5664 c31 -73 34 -97 35 -235 0 -80 -3 -235 -7 -343 l-6 -198
-94 7 c-63 5 -93 4 -93 -3 0 -15 23 -20 126 -28 l91 -6 7 338 c4 187 4 353 0
369 -9 39 -41 102 -56 111 -8 5 -9 2 -3 -12z"/>
<path d="M6614 5673 c-24 -5 -54 -52 -54 -86 0 -13 10 -36 21 -51 18 -23 20
-32 10 -52 -6 -13 -15 -24 -21 -24 -6 0 -8 -5 -4 -11 9 -15 63 -3 87 19 42 37
59 120 35 165 -11 22 -38 47 -48 45 -3 0 -14 -3 -26 -5z"/>
<path d="M6718 5591 c4 -44 0 -62 -18 -96 -28 -51 -76 -80 -122 -72 l-33 5 -3
-352 c-3 -342 -2 -352 18 -385 12 -18 23 -31 26 -28 3 3 -2 17 -11 30 -14 23
-16 64 -14 366 l2 341 36 0 c41 0 93 28 115 63 24 36 30 106 14 147 l-15 35 5
-54z"/>
<path d="M3916 5609 c-101 -16 -182 -122 -211 -276 -37 -195 -2 -399 87 -505
29 -34 102 -68 148 -68 77 0 186 76 230 161 78 150 77 387 0 540 -29 56 -109
134 -145 142 -17 3 -37 8 -45 10 -8 3 -37 1 -64 -4z m103 -192 c45 -89 41
-378 -7 -459 -36 -61 -105 -59 -139 4 -27 49 -26 364 0 423 34 76 45 86 85 83
32 -3 39 -8 61 -51z"/>
<path d="M3922 5427 c-11 -12 -28 -49 -37 -82 -27 -106 -16 -371 17 -391 8 -5
9 1 4 17 -14 48 -18 235 -7 309 13 82 35 129 69 146 12 6 19 14 15 17 -13 14
-40 6 -61 -16z"/>
<path d="M6276 5607 c-5 -10 -6 -31 -2 -47 4 -22 2 -30 -9 -30 -11 0 -15 11
-15 41 0 37 -2 40 -22 33 -13 -3 -49 -20 -80 -35 l-58 -29 0 -53 c0 -28 -3
-194 -7 -368 l-6 -316 77 -18 c42 -10 78 -16 81 -13 2 2 5 123 6 269 0 171 5
276 12 299 22 65 94 74 117 15 5 -14 7 -153 3 -328 l-6 -303 51 -22 c28 -12
61 -23 74 -25 27 -2 24 -46 27 430 2 313 2 324 -19 361 -34 61 -78 84 -149 80
l-60 -3 -3 40 c-3 30 -6 36 -12 22z"/>
<path d="M5967 5578 c16 -30 18 -67 18 -400 0 -201 -2 -369 -5 -371 -8 -8
-173 32 -180 43 -4 6 -21 5 -44 -1 -41 -11 -129 -8 -158 5 -11 5 -18 4 -18 -2
0 -27 90 -42 195 -33 17 1 75 -8 131 -21 l101 -24 7 341 c4 188 4 359 0 381
-8 47 -40 114 -54 114 -6 0 -3 -15 7 -32z"/>
<path d="M4803 5514 c-16 -25 -18 -61 -23 -323 l-5 -296 -84 -10 c-54 -6 -86
-15 -89 -23 -3 -11 14 -12 89 -7 52 4 99 12 106 19 9 8 12 88 14 292 1 302 7
344 49 344 31 0 19 24 -13 28 -19 2 -30 -4 -44 -24z"/>
<path d="M4170 5504 c0 -5 11 -34 25 -63 42 -86 58 -173 52 -286 -12 -249
-133 -409 -309 -410 -45 0 -64 -3 -57 -10 6 -5 42 -10 82 -10 54 1 82 6 112
22 85 45 159 154 185 275 19 85 8 288 -19 358 -22 58 -70 142 -71 124z"/>
<path d="M6689 5377 c-20 -13 -46 -45 -61 -76 -23 -45 -28 -67 -28 -130 0 -98
22 -144 115 -247 113 -124 129 -155 126 -234 -2 -73 -53 -130 -117 -130 -49 0
-121 40 -158 88 -20 25 -36 43 -37 41 -5 -25 -10 -166 -5 -183 7 -28 93 -72
167 -86 108 -21 208 39 249 148 19 48 21 73 18 163 -3 98 -6 111 -40 180 -26
51 -59 96 -107 144 -97 96 -115 162 -56 201 37 24 85 4 140 -59 l45 -52 -2 94
-3 94 -49 34 c-41 28 -57 33 -106 33 -42 0 -66 -6 -91 -23z"/>
<path d="M6292 5360 c-23 -25 -32 -141 -32 -421 0 -103 -3 -190 -7 -192 -5 -2
-39 4 -78 13 -38 9 -74 15 -80 12 -10 -6 84 -37 145 -47 l37 -6 7 298 7 298
30 26 c25 22 27 27 14 33 -23 8 -22 9 -43 -14z"/>
<path d="M6961 5187 c-1 -83 3 -126 9 -122 12 8 12 202 0 230 -5 13 -9 -27 -9
-108z"/>
<path d="M6759 5229 c-20 -20 -26 -64 -9 -74 6 -3 10 3 10 14 0 37 12 51 41
51 36 0 38 16 3 23 -18 3 -33 -2 -45 -14z"/>
<path d="M6978 4743 c8 -158 -27 -254 -114 -311 -70 -47 -134 -51 -249 -18
-11 4 -1 -3 22 -14 23 -11 68 -23 100 -26 51 -5 65 -2 113 23 63 32 113 92
131 156 15 50 15 220 1 262 -7 22 -8 3 -4 -72z"/>
<path d="M4201 4673 c-83 -42 -45 -163 50 -163 60 0 93 106 47 150 -12 11 -25
20 -29 20 -4 0 -13 2 -21 5 -7 3 -29 -3 -47 -12z m67 -29 c41 -28 20 -104 -29
-104 -24 0 -59 34 -59 58 0 28 28 56 60 61 3 1 16 -6 28 -15z"/>
<path d="M6390 4685 c0 -6 68 -34 99 -41 14 -3 -1 7 -33 21 -64 27 -66 28 -66
20z"/>
<path d="M4425 4672 c-3 -3 -5 -41 -5 -84 0 -63 3 -78 15 -78 10 0 15 11 15
35 0 32 2 35 31 35 38 0 35 24 -4 28 -38 5 -35 32 3 32 32 0 44 29 13 31 -10
0 -28 2 -41 3 -12 2 -24 0 -27 -2z"/>
<path d="M4744 4647 c-10 -27 1 -150 14 -155 9 -3 12 12 12 52 0 31 3 56 8 55
4 0 26 -25 50 -55 62 -78 72 -73 72 32 0 64 -3 85 -12 82 -7 -3 -14 -25 -16
-51 -2 -26 -5 -47 -8 -47 -8 0 -83 84 -84 93 0 13 -30 8 -36 -6z"/>
<path d="M5026 4635 c-65 -60 -5 -170 83 -150 70 15 92 95 42 146 -38 38 -87
39 -125 4z m105 -24 c21 -20 19 -52 -5 -76 -30 -30 -45 -31 -74 -5 -33 31 -28
65 13 88 19 11 52 7 66 -7z"/>
<path d="M5972 4647 c-55 -31 -66 -102 -22 -142 33 -30 135 -18 116 14 -5 8
-13 8 -26 1 -28 -15 -48 -12 -70 10 -26 26 -25 46 4 75 19 19 31 23 54 19 27
-6 53 9 35 19 -22 13 -71 15 -91 4z"/>
<path d="M6160 4575 c0 -65 3 -86 13 -83 6 3 13 19 15 36 3 29 6 32 37 32 31
0 34 -3 37 -32 6 -65 23 -32 26 50 2 65 0 83 -10 80 -7 -3 -14 -19 -16 -36 -3
-29 -6 -32 -37 -32 -31 0 -34 3 -37 32 -2 17 -9 33 -15 36 -10 3 -13 -18 -13
-83z"/>
<path d="M5280 4564 c0 -64 3 -85 13 -82 6 3 13 19 15 36 2 18 6 32 10 32 4 0
21 -17 39 -37 37 -45 54 -38 30 12 -10 22 -14 46 -11 65 9 41 -10 60 -57 60
l-39 0 0 -86z m60 41 c0 -8 -7 -15 -15 -15 -8 0 -15 7 -15 15 0 8 7 15 15 15
8 0 15 -7 15 -15z"/>
<path d="M5473 4624 c10 -48 57 -148 66 -138 5 5 16 30 26 57 10 26 20 47 24
47 3 0 15 -24 26 -53 11 -28 24 -51 29 -50 9 1 66 137 66 155 0 5 -6 8 -13 8
-7 0 -22 -21 -34 -47 l-20 -48 -12 30 c-29 76 -43 80 -74 18 l-25 -48 -12 30
c-20 49 -26 59 -40 63 -10 4 -12 -3 -7 -24z"/>
<path d="M5800 4564 c0 -64 3 -85 13 -82 8 3 13 32 15 86 2 68 0 82 -13 82
-12 0 -15 -15 -15 -86z"/>
<path d="M3968 4573 l-3 -68 -55 -18 c-83 -27 -213 -33 -282 -13 -75 21 -82
20 -28 -7 39 -19 61 -22 165 -21 94 1 131 5 170 20 l50 20 3 77 c2 46 -1 77
-7 77 -6 0 -11 -30 -13 -67z"/>
<path d="M7083 4543 c-17 -6 -6 -54 15 -70 9 -7 13 -16 9 -19 -4 -4 -14 -1
-23 7 -15 12 -17 12 -12 -1 7 -23 39 -18 57 10 9 13 11 21 5 17 -16 -9 -25 18
-11 32 8 8 6 11 -8 11 -17 0 -18 2 -5 10 13 9 13 10 0 9 -8 0 -21 -3 -27 -6z"/>
<path d="M5055 4323 c-11 -2 -44 -13 -73 -24 -29 -10 -72 -19 -95 -19 -39 -1
-40 -2 -23 -15 18 -14 18 -15 -10 -25 -70 -26 -123 -56 -173 -98 -56 -48 -114
-119 -106 -132 2 -4 37 4 77 18 40 14 107 27 148 30 76 5 118 23 148 64 7 10
18 16 23 12 6 -3 24 8 41 26 35 37 101 69 142 70 29 0 29 0 10 -21 l-18 -20
51 7 c31 4 65 2 84 -5 18 -6 34 -9 37 -6 18 18 -96 85 -143 85 -15 0 -24 4
-20 10 3 6 15 10 26 10 32 0 21 16 -20 28 -39 12 -69 13 -106 5z m-111 -112
c33 -35 29 -47 -28 -72 -49 -21 -204 -59 -243 -59 l-27 0 34 35 c41 43 104 81
174 106 65 23 58 24 90 -10z"/>
<path d="M5336 4301 c-3 -5 2 -12 11 -15 14 -6 15 -9 4 -15 -9 -6 -6 -10 13
-15 16 -4 23 -11 20 -20 -4 -9 8 -15 38 -19 81 -11 138 -58 138 -113 0 -9 16
-48 36 -87 l36 -70 -16 -57 c-16 -55 -22 -153 -8 -118 4 9 29 29 56 43 58 31
111 82 126 120 9 23 6 30 -20 56 l-30 30 -29 -20 c-15 -11 -31 -17 -35 -13 -4
3 -10 1 -15 -6 -5 -8 -14 -3 -30 18 -19 27 -20 31 -6 37 36 13 182 -11 258
-42 49 -21 -6 56 -81 112 -20 15 -39 30 -42 34 -3 3 -14 9 -25 13 -23 8 -18 3
43 -47 46 -39 43 -52 -9 -37 -19 6 -69 10 -111 10 -69 0 -78 2 -78 18 0 10
-22 51 -48 91 -39 59 -58 78 -97 97 -52 25 -90 31 -99 15z"/>
<path d="M5360 4134 c0 -4 9 -21 20 -39 11 -18 29 -66 39 -107 16 -61 22 -74
41 -76 12 -2 27 1 33 7 8 8 8 11 -1 11 -13 0 -52 58 -52 78 0 6 9 12 20 12 18
0 18 2 -5 52 -13 29 -32 56 -42 60 -23 9 -53 10 -53 2z"/>
<path d="M5295 4107 c22 -34 -3 -67 -51 -67 -27 0 -34 -4 -32 -17 2 -11 -7
-19 -29 -25 -39 -10 -42 -23 -10 -39 36 -19 93 -84 103 -120 13 -45 51 -57
101 -32 53 26 54 43 4 43 -23 0 -41 5 -41 10 0 6 5 10 10 10 26 0 50 41 50 84
0 49 -11 64 -30 41 -14 -16 -40 -20 -40 -6 0 5 7 14 15 21 34 28 -1 120 -46
120 -18 0 -18 -2 -4 -23z"/>
<path d="M3435 4088 c-30 -16 -74 -76 -87 -120 -25 -86 28 -126 94 -70 18 15
41 26 51 24 20 -4 21 -6 5 -32 -7 -10 -9 -23 -4 -27 4 -4 12 0 17 10 6 9 22
28 36 42 26 23 27 24 40 5 8 -11 11 -30 7 -45 -4 -18 -2 -27 11 -31 10 -4 21
-1 25 7 7 11 13 11 34 -1 14 -7 26 -16 26 -19 -1 -9 -22 -33 -47 -54 -40 -34
-86 5 -50 42 10 10 8 12 -8 9 -24 -4 -34 -56 -13 -69 36 -23 101 1 132 49 23
35 72 57 80 36 3 -8 20 -14 39 -14 29 0 39 7 62 41 27 38 62 66 71 56 2 -2 -4
-15 -14 -28 -30 -38 -36 -68 -16 -76 9 -3 24 -1 34 5 10 6 21 7 26 2 5 -5 48
-11 95 -14 l87 -5 36 34 c20 18 36 39 36 46 0 8 -19 -6 -42 -30 -23 -24 -44
-38 -46 -33 -4 12 10 36 80 135 50 69 57 87 36 87 -7 0 -35 -33 -61 -74 -58
-89 -112 -154 -122 -144 -4 3 5 24 19 45 36 53 34 61 -20 59 -47 -1 -50 -3
-99 -69 -32 -43 -50 -34 -24 12 27 49 20 71 -24 71 -25 0 -36 -6 -49 -27 -21
-36 -78 -90 -78 -75 0 7 11 30 25 52 29 46 30 50 12 50 -8 0 -20 -12 -27 -26
-13 -24 -70 -73 -70 -59 0 3 11 23 24 44 14 21 22 42 19 45 -4 3 -23 6 -44 6
-33 0 -43 -7 -82 -52 -54 -63 -72 -59 -28 6 32 45 28 72 -4 36 -23 -25 -35
-25 -35 -1 0 25 -46 25 -72 -1 -21 -21 -45 -19 -39 3 22 74 27 107 21 124 -8
22 -44 29 -75 13z m49 -24 c11 -28 6 -70 -9 -90 -13 -16 -16 -17 -25 -4 -20
31 -10 110 15 110 7 0 16 -7 19 -16z m-36 -107 c10 -12 8 -20 -14 -46 -30 -36
-49 -39 -64 -10 -15 27 -4 75 28 124 l27 40 5 -46 c3 -26 11 -53 18 -62z m285
-59 c-20 -35 -53 -50 -53 -25 0 9 12 30 26 47 35 41 55 25 27 -22z m350 5 c-7
-22 -43 -63 -55 -63 -14 0 -9 30 10 55 20 29 55 34 45 8z"/>
<path d="M4520 4062 c-47 -18 -90 -61 -90 -87 0 -78 172 -193 247 -164 42 16
39 1 -3 -18 -22 -10 -42 -22 -46 -28 -11 -15 -9 -97 2 -115 5 -8 10 -10 10 -5
0 6 11 22 23 38 l23 27 -4 -96 c-4 -76 -1 -103 13 -135 16 -34 19 -37 30 -22
10 14 13 10 18 -25 5 -40 33 -75 87 -107 9 -5 32 -22 51 -36 19 -15 57 -34 84
-43 29 -9 72 -35 100 -60 l49 -43 25 23 c14 13 55 36 91 50 56 23 79 27 172
26 85 0 110 3 125 16 10 10 37 26 58 37 32 16 41 26 43 52 l3 32 -39 -22 c-36
-19 -43 -20 -80 -8 -40 14 -62 42 -62 81 0 30 20 24 32 -10 13 -38 40 -53 79
-45 33 8 59 39 59 72 0 13 5 23 10 23 6 0 10 16 10 35 0 44 -16 51 -76 35 -36
-10 -56 -10 -99 -1 -45 10 -58 10 -83 -3 -35 -18 -48 -68 -26 -103 23 -36 17
-46 -16 -27 -28 17 -60 76 -60 111 0 9 -8 41 -17 72 -25 77 -82 134 -152 151
-56 13 -105 48 -114 80 -7 26 -1 25 33 -4 27 -22 96 -43 107 -32 3 2 -5 32
-18 66 -22 61 -48 90 -81 90 -19 0 -25 25 -8 35 18 11 10 25 -14 25 -19 0 -23
4 -19 21 5 17 2 19 -20 14 -23 -6 -25 -4 -20 15 6 22 6 22 -39 -4 -25 -15 -59
-26 -74 -26 -16 1 -47 2 -70 3 -29 1 -54 -7 -90 -28 -27 -17 -62 -30 -79 -30
-16 -1 -41 -5 -54 -9 -22 -8 -23 -6 -17 18 5 20 3 26 -9 26 -13 0 -13 3 -3 19
7 11 22 25 35 32 48 26 20 34 -37 11z m551 -158 c10 -12 6 -13 -22 -8 -40 8
-43 10 -35 22 8 13 42 4 57 -14z m14 -44 c3 -5 -1 -10 -9 -10 -9 0 -16 5 -16
10 0 6 4 10 9 10 6 0 13 -4 16 -10z m-252 -154 c7 -75 56 -175 104 -215 36
-29 108 -62 168 -76 54 -13 -2 -24 -84 -18 l-73 6 12 -22 c18 -34 5 -36 -27
-4 -40 38 -70 84 -78 116 -9 36 -23 34 -33 -5 l-9 -33 -13 45 c-16 59 -16 194
0 248 16 52 25 40 33 -42z m232 -40 c46 1 47 -3 16 -39 -12 -15 -13 -20 -2
-26 20 -13 -5 -24 -26 -12 -30 16 -61 54 -79 96 l-16 40 32 -30 c26 -24 39
-30 75 -29z m450 -206 c14 -11 9 -50 -6 -50 -5 0 -9 8 -9 18 0 28 -20 42 -51
35 -29 -5 -63 12 -54 27 5 9 102 -15 120 -30z"/>
<path d="M6745 3950 c-58 -122 -71 -134 -83 -88 -10 36 -5 58 9 37 11 -18 23
-4 15 16 -8 21 -38 15 -51 -10 -16 -33 -67 -96 -73 -91 -2 3 7 28 22 56 20 39
23 50 11 50 -8 0 -22 -15 -31 -32 -18 -37 -53 -78 -66 -78 -10 0 6 35 59 133
44 79 50 97 33 97 -5 0 -30 -39 -55 -87 -48 -92 -81 -140 -91 -130 -4 3 4 22
16 42 25 41 23 47 -19 51 -31 4 -40 -3 -110 -86 -35 -41 -53 -34 -22 8 12 17
21 40 21 51 0 18 -6 21 -38 21 -35 0 -39 -3 -70 -59 -39 -70 -27 -91 17 -28
33 48 59 73 67 64 4 -3 -4 -20 -16 -36 -35 -51 -21 -73 35 -56 11 3 29 -1 40
-8 19 -14 18 -16 -18 -52 -45 -45 -73 -44 -71 3 2 28 0 30 -17 21 -10 -5 -19
-17 -19 -27 0 -32 18 -46 56 -45 33 1 46 9 95 62 58 63 67 69 86 50 8 -8 17
-8 33 1 15 8 25 9 33 1 7 -7 16 -7 29 0 10 5 23 7 29 3 6 -3 30 -3 55 1 38 5
47 12 69 50 26 43 55 75 55 59 -1 -5 -7 -20 -15 -34 -19 -33 -19 -70 0 -70 8
0 12 6 9 13 -2 7 2 27 11 43 19 37 19 64 0 64 -20 0 -19 13 5 62 22 45 24 58
12 58 -4 0 -30 -45 -57 -100z m-315 -69 c0 -20 -36 -71 -51 -71 -16 0 -10 31
12 61 23 33 39 37 39 10z m210 -41 c0 -11 -7 -20 -15 -20 -13 0 -14 4 -5 20 6
11 13 20 15 20 3 0 5 -9 5 -20z"/>
<path d="M3676 4021 c-4 -5 -2 -12 3 -15 5 -4 12 -2 15 3 4 5 2 12 -3 15 -5 4
-12 2 -15 -3z"/>
<path d="M6141 4008 c-12 -12 -24 -36 -27 -54 -3 -19 -14 -36 -23 -39 -64 -20
-81 -108 -27 -134 26 -12 35 -12 70 1 69 25 90 98 28 98 -28 0 -52 -15 -52
-34 0 -5 9 -1 20 9 15 13 24 15 31 8 17 -17 6 -46 -23 -62 -21 -12 -31 -13
-52 -3 -38 17 -36 62 5 96 17 14 34 26 38 26 4 0 12 20 19 45 10 38 16 45 37
45 30 0 35 -33 8 -49 -25 -13 -9 -25 15 -12 26 14 37 48 22 66 -18 22 -66 18
-89 -7z"/>
<path d="M3870 4001 c0 -6 5 -13 10 -16 6 -3 10 1 10 9 0 9 -4 16 -10 16 -5 0
-10 -4 -10 -9z"/>
<path d="M6616 3981 c-4 -7 -5 -15 -2 -18 9 -9 19 4 14 18 -4 11 -6 11 -12 0z"/>
<path d="M5436 3779 c-4 -23 -13 -54 -22 -70 -19 -38 2 -40 32 -2 20 26 24 27
48 14 39 -21 39 -10 0 38 -18 24 -34 48 -34 52 0 5 -4 9 -9 9 -5 0 -11 -18
-15 -41z"/>
<path d="M5152 3756 c8 -7 32 -23 54 -35 21 -12 50 -28 64 -37 15 -10 11 -3
-10 15 -19 17 -39 31 -45 31 -5 0 -21 9 -35 20 -29 22 -48 27 -28 6z"/>
<path d="M3220 3528 c0 -13 -5 -196 -10 -408 -8 -328 -13 -688 -11 -726 1 -6
19 -19 41 -29 22 -10 40 -22 40 -27 0 -4 9 -8 20 -8 19 0 20 7 20 113 0 194
13 597 19 597 5 0 27 -65 116 -345 37 -117 37 -117 77 -54 19 30 52 86 73 124
22 39 51 89 66 112 l27 43 5 -30 c4 -16 5 -35 2 -42 -2 -7 -6 -164 -10 -349
l-6 -337 62 -21 c35 -11 68 -21 75 -21 9 0 12 42 13 163 1 89 3 216 6 282 2
66 7 256 10 422 l6 303 -23 9 c-13 5 -37 11 -54 15 -31 7 -32 6 -92 -96 -72
-124 -105 -181 -132 -230 -37 -69 -30 -82 -144 272 -37 113 -70 211 -74 219
-7 13 -99 70 -114 71 -5 0 -8 -10 -8 -22z"/>
<path d="M6957 3098 c-4 -232 -7 -496 -7 -587 0 -91 -4 -171 -8 -177 -4 -6
-61 -39 -127 -73 -110 -57 -124 -62 -169 -58 -44 4 -48 3 -31 -9 25 -18 84
-18 126 1 19 8 75 37 124 63 l90 48 7 65 c9 90 17 1149 8 1149 -4 0 -10 -190
-13 -422z"/>
<path d="M6870 3467 l-55 -43 -3 -174 c-2 -96 -4 -175 -5 -177 -2 -1 -22 3
-45 9 -124 31 -244 -100 -287 -312 -20 -97 -16 -272 9 -374 37 -154 159 -217
269 -138 25 17 51 32 59 32 7 1 36 13 63 29 l50 28 6 299 c9 451 10 864 2 864
-5 -1 -33 -20 -63 -43z m-101 -534 c34 -28 42 -84 35 -268 -7 -196 -14 -235
-52 -270 -52 -49 -112 -17 -132 71 -13 53 -12 239 0 304 26 139 91 210 149
163z"/>
<path d="M6692 2896 c-16 -19 -36 -57 -43 -87 -16 -64 -19 -345 -4 -371 7 -11
10 36 10 155 1 155 3 178 23 229 13 31 29 61 37 68 12 10 21 13 55 19 9 2 -25
21 -36 21 -7 0 -25 -15 -42 -34z"/>
<path d="M3370 3465 c0 -18 162 -496 167 -492 5 5 -153 487 -162 496 -3 2 -5
1 -5 -4z"/>
<path d="M7435 3330 c27 -12 35 -12 35 0 0 6 -12 10 -27 9 -25 0 -26 -1 -8 -9z"/>
<path d="M7348 3323 c-10 -2 -18 -9 -18 -14 0 -6 9 -5 21 2 16 8 28 8 46 0 34
-16 50 -14 27 4 -19 14 -43 17 -76 8z"/>
<path d="M7353 3293 c-23 -9 -14 -20 12 -15 14 2 25 8 25 13 0 10 -17 11 -37
2z"/>
<path d="M3888 3280 c-3 -8 -12 -278 -18 -600 -7 -322 -14 -586 -15 -588 -2
-2 -35 6 -75 18 -102 30 -98 18 5 -15 47 -15 87 -26 89 -24 6 6 28 1078 24
1154 -2 39 -6 63 -10 55z"/>
<path d="M7263 3179 c-15 -33 -20 -57 -14 -66 4 -9 4 -33 -1 -56 -5 -22 -7
-42 -4 -44 9 -9 28 80 22 102 -6 25 19 95 34 95 6 0 10 5 10 10 0 28 -28 4
-47 -41z"/>
<path d="M7286 3165 c-3 -9 -6 -22 -5 -28 0 -7 5 -1 10 12 5 13 8 26 5 28 -2
2 -6 -3 -10 -12z"/>
<path d="M7220 3063 c-6 -21 -12 -78 -14 -128 -2 -49 -2 -72 0 -50 2 22 11 77
20 123 17 88 13 121 -6 55z"/>
<path d="M7427 3060 c-3 -11 -1 -20 4 -20 5 0 9 9 9 20 0 11 -2 20 -4 20 -2 0
-6 -9 -9 -20z"/>
<path d="M5340 2925 c0 -50 -4 -85 -10 -85 -6 0 -10 34 -10 81 0 93 5 91 -105
36 -69 -34 -75 -40 -75 -84 0 -31 -1 -32 -47 -35 -46 -3 -48 -4 -59 -43 -6
-22 -15 -38 -20 -35 -5 3 -10 -29 -12 -70 -1 -41 -7 -85 -14 -97 -14 -28 -7
-37 22 -28 20 6 21 12 18 85 -2 50 0 76 7 70 5 -6 23 -10 41 -10 18 0 39 -3
48 -6 31 -12 15 -19 -34 -16 -32 3 -50 0 -50 -7 0 -9 62 -17 93 -12 4 1 5
-125 1 -278 l-7 -280 27 -55 c22 -46 35 -59 78 -80 79 -39 163 -35 216 12 28
24 28 32 -3 92 l-25 49 -36 -15 -37 -16 6 184 c4 101 7 227 7 281 l0 97 69 0
69 0 4 78 c2 42 0 81 -3 86 -17 20 -29 -10 -29 -70 l0 -64 -65 0 c-44 0 -67
-4 -70 -12 -10 -34 -15 -530 -5 -548 7 -13 7 -20 1 -20 -26 0 -30 46 -24 309
5 215 9 274 20 278 7 3 37 6 66 7 l52 1 7 55 c4 30 3 59 -2 64 -5 4 -26 8 -47
8 l-38 -1 3 90 c3 76 2 89 -12 89 -13 0 -16 -14 -16 -85z"/>
<path d="M6343 2960 c-24 -10 -43 -15 -43 -10 0 6 -4 10 -10 10 -5 0 -10 -11
-10 -24 0 -14 -4 -28 -10 -31 -5 -3 -10 1 -10 9 0 28 -21 28 -84 -2 l-64 -30
-6 -163 c-13 -385 -16 -658 -7 -664 6 -3 41 2 79 11 l69 17 7 120 c3 66 6 195
6 287 0 226 4 248 51 300 36 39 42 42 76 37 20 -4 40 -12 44 -19 11 -18 23 -3
42 52 8 25 18 53 22 62 4 10 -1 24 -14 37 -27 27 -81 27 -138 1z"/>
<path d="M3346 2705 c-3 -143 -8 -299 -9 -347 -2 -49 0 -88 5 -88 4 0 8 12 8
28 1 15 3 74 5 132 10 246 13 496 6 515 -5 11 -11 -96 -15 -240z"/>
<path d="M7222 2910 c0 -19 2 -27 5 -17 2 9 2 25 0 35 -3 9 -5 1 -5 -18z"/>
<path d="M4157 2923 c-3 -5 -9 -162 -13 -349 -5 -245 -4 -346 4 -360 9 -15 12
10 13 111 1 72 4 231 8 355 6 207 3 268 -12 243z"/>
<path d="M4045 2898 c-33 -11 -63 -23 -66 -27 -4 -3 -9 -148 -13 -321 -7 -339
-2 -384 45 -444 47 -59 175 -90 238 -57 18 10 22 9 30 -12 10 -25 18 -28 124
-43 l47 -6 0 108 c0 60 5 253 10 429 6 194 6 323 0 329 -5 5 -38 0 -84 -14
l-76 -24 -1 -55 c-1 -31 -4 -168 -7 -304 -7 -246 -7 -249 -31 -268 -13 -10
-34 -19 -48 -19 -35 0 -80 26 -88 51 -4 12 -6 173 -4 357 3 218 1 336 -6 338
-5 2 -37 -6 -70 -18z"/>
<path d="M4489 2805 c-1 -36 -2 -68 -3 -72 -1 -5 -6 -178 -10 -387 l-9 -378
-43 6 c-24 3 -64 9 -89 12 -28 4 -45 3 -45 -3 0 -6 37 -16 83 -23 45 -6 89
-14 98 -16 23 -6 27 56 35 529 5 294 4 397 -5 397 -7 0 -11 -24 -12 -65z"/>
<path d="M3598 2706 c-49 -84 -88 -162 -88 -172 0 -29 14 -9 101 142 49 85 79
148 77 161 -2 16 -28 -21 -90 -131z"/>
<path d="M5695 2846 c-22 -7 -58 -22 -81 -34 -41 -21 -41 -21 -47 -89 -3 -37
-2 -72 3 -77 5 -5 22 3 41 18 68 58 153 73 188 34 23 -24 34 -69 29 -114 l-3
-29 -90 3 c-80 3 -95 0 -135 -21 -99 -53 -146 -160 -138 -309 3 -48 2 -85 -3
-83 -20 13 -18 -19 6 -68 31 -67 31 -77 -4 -104 -45 -35 -111 -49 -173 -36
-63 13 -71 10 -29 -11 38 -20 140 -21 186 -2 19 8 46 27 59 41 l24 26 -30 65
c-17 36 -28 67 -25 70 3 3 8 -5 12 -18 13 -40 66 -98 104 -114 42 -18 121 -19
171 -3 19 6 58 12 85 14 28 1 68 5 91 9 l41 7 6 181 c12 309 9 515 -7 551 -20
46 -56 82 -95 95 -44 15 -135 14 -186 -2z m105 -468 c39 -48 38 -148 -3 -209
-19 -28 -30 -35 -64 -37 l-41 -3 -7 64 c-4 36 -4 79 0 95 9 44 42 82 71 82 28
0 32 16 7 22 -30 7 -65 -6 -85 -32 -27 -36 -33 -115 -14 -170 18 -52 14 -62
-10 -25 -37 57 -17 204 33 235 28 17 91 5 113 -22z"/>
<path d="M7226 2768 c6 -79 -6 -86 -17 -10 -6 36 -7 30 -4 -29 3 -83 23 -144
26 -79 l1 35 10 -39 c8 -29 7 -40 -2 -46 -10 -6 -9 -17 4 -51 9 -24 14 -32 11
-17 -3 15 -1 30 5 33 5 3 10 -3 10 -14 0 -11 5 -23 10 -26 13 -8 13 -45 0 -45
-5 0 -7 -7 -3 -16 4 -11 8 -12 13 -4 4 7 13 9 19 6 17 -11 13 -26 -6 -26 -15
0 -15 -1 0 -18 10 -10 15 -21 12 -23 -2 -3 12 -5 33 -5 20 -1 29 1 20 3 -10 3
-18 9 -18 14 0 6 6 7 13 3 9 -5 9 -4 0 6 -10 11 -15 11 -29 -1 -16 -13 -17
-12 -11 13 5 18 1 37 -12 60 -10 18 -22 48 -26 66 -4 17 -12 32 -18 32 -7 0
-13 16 -13 38 -4 95 -18 212 -25 212 -5 0 -6 -33 -3 -72z"/>
<path d="M4685 2808 c-21 -13 -53 -43 -70 -66 -26 -38 -30 -54 -33 -121 -6
-124 29 -177 195 -296 57 -41 83 -83 83 -132 0 -59 -25 -85 -86 -90 -66 -6
-139 31 -139 71 -1 14 -9 34 -18 43 -21 22 -22 5 -1 -25 8 -12 11 -22 5 -22
-5 0 -19 14 -31 30 -12 17 -26 28 -31 25 -5 -4 -9 -44 -9 -91 l0 -84 48 -31
c108 -68 255 -79 335 -23 63 43 101 127 101 219 0 58 -5 79 -29 124 -30 55
-88 112 -159 157 -85 54 -119 131 -76 174 38 38 111 22 173 -38 l38 -37 -3 90
-3 90 -45 23 c-33 18 -66 25 -125 29 -70 4 -85 1 -120 -19z"/>
<path d="M6327 2772 c-30 -31 -37 -46 -41 -92 -5 -43 -14 -425 -16 -591 0 -24
-5 -27 -80 -43 -73 -16 -100 -29 -87 -42 2 -3 47 5 98 18 l94 23 2 105 c9 501
12 552 27 575 25 38 58 65 80 65 17 0 18 2 6 10 -26 17 -45 11 -83 -28z"/>
<path d="M5980 2799 c0 -3 7 -27 17 -54 14 -43 15 -87 10 -389 -5 -240 -10
-342 -18 -347 -7 -4 -48 -12 -93 -18 -45 -7 -107 -17 -138 -23 -32 -6 -80 -8
-108 -6 -64 6 -65 -6 0 -22 38 -9 61 -9 102 0 29 7 76 14 103 16 28 3 77 10
110 17 l60 13 2 64 c8 269 10 622 4 652 -8 32 -50 114 -51 97z"/>
<path d="M5683 2685 c-61 -28 -113 -77 -113 -105 0 -25 16 -26 30 -1 16 30
129 101 161 101 34 0 38 15 7 24 -31 8 -27 9 -85 -19z"/>
<path d="M4782 2658 c-22 -28 -14 -91 12 -101 12 -5 13 -1 6 19 -19 49 21 82
82 69 29 -7 31 -6 16 9 -20 19 -101 22 -116 4z"/>
<path d="M7470 2630 c0 -11 2 -20 4 -20 2 0 6 9 9 20 3 11 1 20 -4 20 -5 0 -9
-9 -9 -20z"/>
<path d="M7505 2639 c-4 -6 -5 -12 -2 -15 2 -3 7 2 10 11 7 17 1 20 -8 4z"/>
<path d="M7452 2585 c0 -16 2 -22 5 -12 2 9 2 23 0 30 -3 6 -5 -1 -5 -18z"/>
<path d="M7490 2530 c0 -5 5 -10 10 -10 6 0 10 5 10 10 0 6 -4 10 -10 10 -5 0
-10 -4 -10 -10z"/>
<path d="M7465 2511 c-3 -5 -1 -12 5 -16 5 -3 10 1 10 9 0 18 -6 21 -15 7z"/>
<path d="M7420 2461 c0 -11 26 -22 34 -14 3 3 3 10 0 14 -7 12 -34 11 -34 0z"/>
<path d="M7417 2420 c-3 -11 -1 -20 4 -20 5 0 9 9 9 20 0 11 -2 20 -4 20 -2 0
-6 -9 -9 -20z"/>
<path d="M7562 2420 c0 -14 2 -19 5 -12 2 6 2 18 0 25 -3 6 -5 1 -5 -13z"/>
<path d="M4996 2388 c4 -7 13 -20 20 -28 27 -31 44 -130 35 -191 -22 -133
-102 -214 -223 -226 -59 -5 -99 2 -195 33 -10 3 -3 -3 15 -15 46 -30 155 -54
206 -46 141 23 226 126 226 274 0 78 -12 120 -49 173 -24 35 -52 54 -35 26z"/>
<path d="M7448 2393 c7 -3 16 -2 19 1 4 3 -2 6 -13 5 -11 0 -14 -3 -6 -6z"/>
<path d="M7440 2370 c0 -6 7 -10 15 -10 8 0 15 2 15 4 0 2 -7 6 -15 10 -8 3
-15 1 -15 -4z"/>
<path d="M7345 2360 c3 -5 11 -10 16 -10 6 0 7 5 4 10 -3 6 -11 10 -16 10 -6
0 -7 -4 -4 -10z"/>
<path d="M4220 2019 c-14 -6 -47 -8 -73 -4 -30 4 -46 2 -43 -4 8 -13 99 -24
136 -16 16 4 30 13 30 21 0 16 -15 17 -50 3z"/>
<path d="M6112 1268 c-14 -14 -16 -28 -2 -28 5 0 14 9 20 20 12 22 1 27 -18 8z"/>
<path d="M6195 1270 c-3 -5 -1 -10 4 -10 6 0 11 5 11 10 0 6 -2 10 -4 10 -3 0
-8 -4 -11 -10z"/>
<path d="M6332 1249 c-11 -17 -11 -23 -2 -29 22 -14 51 1 48 24 -4 28 -30 31
-46 5z"/>
<path d="M5921 1104 c0 -11 3 -14 6 -6 3 7 2 16 -1 19 -3 4 -6 -2 -5 -13z"/>
<path d="M5995 580 c-22 -3 -46 -9 -54 -14 -8 -5 -16 -3 -22 5 -7 11 -14 11
-41 1 -21 -8 -34 -8 -38 -2 -4 7 -35 9 -81 5 -41 -3 -218 -7 -394 -8 -176 -1
-322 -5 -325 -9 -12 -15 -209 -22 -250 -8 -34 11 -42 11 -66 -5 -25 -16 -28
-16 -39 -1 -14 18 -42 21 -47 5 -3 -9 -427 -13 -668 -7 -8 0 -37 -2 -65 -6
-27 -3 -99 -8 -159 -11 -118 -6 -130 -10 -122 -31 4 -9 -2 -14 -15 -14 -11 0
-17 -4 -14 -10 4 -6 -2 -7 -17 -1 -13 5 -43 9 -68 10 -25 1 -71 5 -102 9 -32
5 -58 5 -58 0 0 -4 15 -8 33 -8 25 0 29 -3 17 -11 -11 -7 -6 -8 20 -4 19 3 58
1 85 -5 143 -32 566 -70 1015 -91 426 -19 1083 -10 1475 22 72 6 159 13 195
15 125 10 473 58 503 69 9 4 17 3 17 -3 0 -5 -12 -13 -26 -16 -15 -4 -24 -9
-21 -12 8 -8 243 61 262 78 5 4 -14 8 -42 8 -29 0 -54 -4 -57 -9 -3 -4 -38
-11 -78 -15 -107 -11 -122 -13 -157 -21 -24 -5 -31 -3 -31 9 0 9 11 18 25 22
29 7 28 27 -1 33 -10 2 -22 8 -25 13 -4 6 -41 10 -83 10 -47 -1 -76 3 -76 9 0
7 -12 8 -31 4 -85 -19 -144 -23 -159 -10 -15 13 -133 16 -215 5z m-2318 -106
c-3 -3 -12 -4 -19 -1 -8 3 -5 6 6 6 11 1 17 -2 13 -5z m3070 0 c-3 -3 -12 -4
-19 -1 -8 3 -5 6 6 6 11 1 17 -2 13 -5z"/>
<path d="M3431 456 c12 -10 60 -16 54 -6 -3 5 -18 10 -32 10 -15 0 -24 -2 -22
-4z"/>
<path d="M3508 433 c7 -3 16 -2 19 1 4 3 -2 6 -13 5 -11 0 -14 -3 -6 -6z"/>
<path d="M6618 433 c7 -3 16 -2 19 1 4 3 -2 6 -13 5 -11 0 -14 -3 -6 -6z"/>
<path d="M6518 413 c7 -3 16 -2 19 1 4 3 -2 6 -13 5 -11 0 -14 -3 -6 -6z"/>
<path d="M6303 383 c9 -2 25 -2 35 0 9 3 1 5 -18 5 -19 0 -27 -2 -17 -5z"/>
<path d="M4070 370 c8 -5 26 -10 39 -10 32 0 24 6 -19 14 -25 4 -31 3 -20 -4z"/>
<path d="M6243 373 c9 -2 23 -2 30 0 6 3 -1 5 -18 5 -16 0 -22 -2 -12 -5z"/>
<path d="M4173 363 c9 -2 23 -2 30 0 6 3 -1 5 -18 5 -16 0 -22 -2 -12 -5z"/>
<path d="M6080 360 c0 -5 22 -7 53 -3 71 8 72 13 4 13 -31 0 -57 -4 -57 -10z"/>
<path d="M5983 343 c9 -2 25 -2 35 0 9 3 1 5 -18 5 -19 0 -27 -2 -17 -5z"/>
<path d="M5853 333 c9 -2 23 -2 30 0 6 3 -1 5 -18 5 -16 0 -22 -2 -12 -5z"/>
</g>
</svg>
