<?xml version="1.0" encoding="utf-8"?>
<svg viewBox="156.001 101.867 187.859 394.788" xmlns="http://www.w3.org/2000/svg">
  <path style="fill-rule: evenodd; stroke-linejoin: miter; stroke-miterlimit: 4; stroke-opacity: 1; display: inline; paint-order: stroke; fill: rgba(0, 0, 0, 0); stroke: rgb(255, 255, 255); stroke-width: 3px; stroke-dasharray: 5px; stroke-dashoffset: -16px;" d="M 249.93 101.867 C 248.815 101.867 247.84 102.285 246.446 102.982 C 242.823 104.794 232.232 104.933 228.609 103.4 C 225.265 102.007 224.289 102.007 221.781 103.957 C 218.297 107.023 213.002 107.302 209.1 105.63 C 204.501 103.818 201.296 104.654 197.673 106.466 C 194.05 108.277 194.328 115.802 186.106 120.819 C 186.106 122.073 188.893 126.393 193.213 130.017 C 203.944 141.862 207.706 154.403 207.567 169.732 C 210.911 175.585 211.747 187.848 210.075 189.799 C 208.542 191.889 208.682 195.513 210.354 197.882 C 213.698 204.57 212.862 208.472 212.862 215.579 C 207.149 217.67 204.78 221.85 202.968 225.613 C 199.763 232.72 195.304 232.302 187.918 238.015 C 184.852 240.524 184.852 245.262 187.361 246.377 C 197.394 250 219.551 244.147 221.502 249.861 C 222.896 297.38 221.223 340.44 209.378 383.64 C 208.403 386.845 206.313 390.607 203.386 392.419 C 200.46 394.23 198.927 394.509 196.976 395.067 C 191.263 396.46 190.566 404.125 190.148 406.912 C 189.59 416.109 188.615 422.101 187.5 424.61 C 182.205 439.381 164.367 443.98 159.211 459.03 C 156.982 465.719 159.769 469.342 161.58 475.334 C 160.744 478.679 157.121 479.654 158.375 485.786 C 158.514 489.269 155.867 488.294 156.006 493.311 L 156.006 496.377 C 156.006 496.377 202.968 496.655 249.93 496.655 C 296.892 496.655 343.854 496.377 343.854 496.377 L 343.854 493.311 C 343.994 488.294 341.346 489.269 341.485 485.786 C 342.74 479.654 339.116 478.679 338.28 475.334 C 340.231 469.342 343.018 465.719 340.649 459.03 C 335.493 443.98 317.795 439.381 312.361 424.61 C 311.385 422.101 310.27 416.109 309.713 406.912 C 309.434 404.125 308.737 396.46 303.024 395.067 C 300.934 394.509 299.401 394.23 296.474 392.419 C 293.548 390.607 291.597 386.845 290.621 383.64 C 278.637 340.44 276.965 297.38 278.358 249.861 C 280.449 244.286 302.606 250 312.5 246.377 C 315.148 245.262 315.148 240.524 311.943 238.015 C 304.557 232.302 300.237 232.72 296.892 225.613 C 295.22 221.85 292.851 217.67 286.998 215.579 C 286.998 208.472 286.302 204.57 289.646 197.882 C 291.318 195.513 291.458 191.889 289.785 189.799 C 288.252 187.848 288.949 175.585 292.433 169.732 C 292.294 154.403 295.917 141.862 306.647 130.017 C 311.106 126.393 313.754 122.073 313.754 120.819 C 305.532 115.802 306.09 109.253 301.491 106.605 C 297.032 103.818 293.827 104.376 290.9 105.63 C 286.998 107.302 281.703 107.023 278.08 103.957 C 275.711 102.007 274.596 102.007 271.391 103.4 C 267.628 104.933 257.177 104.794 253.553 102.982 C 252.021 102.285 251.045 101.867 249.93 101.867 Z" id="path283"/>
</svg>